<?xml version="1.0" encoding="utf-8"?>
<!-- Generator: Adobe Illustrator 24.0.0, SVG Export Plug-In . SVG Version: 6.00 Build 0)  -->
<svg version="1.1" id="Layer_1" xmlns="http://www.w3.org/2000/svg" xmlns:xlink="http://www.w3.org/1999/xlink" x="0px" y="0px"
	 viewBox="0 0 64 64" style="enable-background:new 0 0 64 64;" xml:space="preserve">
<style type="text/css">
	.st0{fill:#020202;}
	.st1{fill:#FFFFFF;}
	.st2{fill:none;}
</style>
<path class="st0" d="M63.3,32c0,0.1,0,0.2,0,0.2c0,3.1-0.5,6.2-1.5,9c-0.2,0.7-0.5,1.4-0.8,2.1v0c-0.3,0.6-0.6,1.3-0.9,1.9
	c-5,10.1-15.7,17.1-28,17.1C14.9,62.3,1,48.7,1,32C1,15.2,14.9,1.6,32.2,1.6c16,0,29.2,11.8,31,26.9c0.1,0.6,0.1,1.2,0.2,1.8
	C63.3,30.9,63.3,31.4,63.3,32z"/>
<path class="st0" d="M63.3,32c0,0.1,0,0.2,0,0.2c0,3.1-0.5,6.2-1.5,9c-0.2,0.7-0.5,1.4-0.8,2.1c-0.2-3.2-0.8-7.6-4-11.5
	c-4.8-6-14.4-7.1-20.2-3.2c-5.8,3.9-4.7,3-5.1,3.5c-0.5,0.5-0.9,0.7-1.4,0.9c-0.5,0.2,0.8,4.4-3.8,8.9c-2.9,2.7-4.4,3.8-4.9,4.3
	c-0.5,0.5-1.7-0.2-2.2-0.7c-0.5-0.5-2.9-3.1-3.9-4.6c-1-1.5-3.5-5.2-3.8-5.8c-0.3-0.7,0.4-1.4,1-1.6c0.6-0.3,6.3-3.3,7.5-3.9
	c1.2-0.6,3.1-1.2,5.9-0.7c1.9-1.2,2.8-1.8,6.8-3.9c4-2.2,10.8-5.9,19.9-2.8c4.6,1.6,8,4.5,10.5,8.3C63.3,30.9,63.3,31.4,63.3,32z"/>
<path class="st1" d="M52.5,23c4.5,1.5,8,4.5,10.8,9.2c0-0.1,0-0.2,0-0.2c0-0.5,0-1.1,0-1.6c0-0.6-0.1-1.2-0.2-1.8
	c-2.7-3.5-6.1-6-10-7.3c-9.6-3.3-16.8,0.7-20.7,2.9c-3.7,2-4.8,2.7-6.4,3.7l-0.1,0.1c-2.3-0.3-4.3-0.1-6.1,0.8
	c-0.7,0.4-3.1,1.6-5,2.6c-1.2,0.6-2.3,1.2-2.6,1.3c-0.5,0.2-0.9,0.6-1.2,1c-0.4,0.6-0.5,1.3-0.2,1.9c0.2,0.5,1.1,1.8,2.5,3.9
	c0.5,0.8,1,1.6,1.4,2.1c1.1,1.6,3.6,4.3,4,4.8c0.3,0.4,0.9,0.7,1.4,0.9c1.2,0.5,1.8,0.1,2.1-0.2c0.1-0.1,0.4-0.3,0.7-0.6
	c0.8-0.7,2.2-1.8,4.1-3.6l0,0c3.7-3.6,3.9-7.2,4-8.7c0-0.1,0-0.1,0-0.2c0.4-0.2,0.8-0.5,1.3-0.9c0.1-0.1,0.1-0.1,0.1-0.2
	c0.1,0,0.2-0.1,0.3-0.2c0.5-0.3,1.7-1.1,4.5-3c5.7-3.8,14.5-2.4,18.9,3c3.5,4.4,3.7,9.2,3.8,12.4c0,0.1,0,0.3,0,0.4
	c0.3-0.6,0.6-1.2,0.9-1.9v0c0.3-0.7,0.5-1.4,0.8-2.1c-0.4-3-1.3-6.7-4-10.1c-4.9-6.2-15-7.7-21.4-3.4c-2.8,1.9-4,2.7-4.5,3
	c-0.5,0.3-0.5,0.3-0.7,0.5c0,0,0,0-0.1,0.1c-0.4,0.3-0.7,0.5-1.1,0.7c-0.7-1.2-1.9-2.3-2.8-2.9c1.5-0.9,2.6-1.6,6.1-3.5
	C37.2,23.6,43.7,20,52.5,23z M20.1,44.9c-0.6-0.6-2.9-3.1-3.8-4.5c-0.3-0.5-0.8-1.3-1.4-2.1c-0.7-1-1.5-2.2-2-3
	c1.5,1.3,3.8,3.7,4.9,5c0.9,1.1,2.1,3.4,2.8,4.9C20.4,45.1,20.2,45,20.1,44.9z M29.6,32.5c-0.3,0.3-0.3,0.8-0.3,1.3
	c-0.1,1.4-0.2,4.3-3.4,7.4c-1.9,1.8-3.3,2.9-4,3.5c-0.2,0.2-0.4,0.4-0.6,0.5c-0.7-1.4-2-4-3-5.3c-1-1.3-3.9-4.3-5.5-5.5
	c0.1-0.1,0.2-0.2,0.3-0.2c0.2-0.1,1.3-0.7,2.6-1.4c1.9-1,4.2-2.2,4.9-2.6c1.5-0.7,3.3-0.9,5.3-0.6l0.4,0.1l0.5-0.3
	C27.6,30.1,28.9,31.2,29.6,32.5z"/>
<path class="st2" d="M63.3,32c0,0.1,0,0.2,0,0.2c0,3.1-0.5,6.2-1.5,9c-0.2,0.7-0.5,1.4-0.8,2.1v0c-0.3,0.6-0.6,1.3-0.9,1.9
	c-5,10.1-15.7,17.1-28,17.1C14.9,62.3,1,48.7,1,32C1,15.2,14.9,1.6,32.2,1.6c16,0,29.2,11.8,31,26.9c0.1,0.6,0.1,1.2,0.2,1.8
	C63.3,30.9,63.3,31.4,63.3,32z"/>
</svg>
