<svg xmlns="http://www.w3.org/2000/svg" xmlns:xlink="http://www.w3.org/1999/xlink" viewBox="0 0 953.95 1153.94"><defs><style>.cls-1,.cls-4{fill:none;}.cls-2{clip-path:url(#clip-path);}.cls-3{fill:#020202;stroke-width:11.5px;}.cls-3,.cls-4{stroke:#fff;stroke-miterlimit:10;}.cls-4{stroke-width:3.19px;}</style><clipPath id="clip-path" transform="translate(152.01 154.72)"><ellipse id="SVGID" class="cls-1" cx="189.46" cy="184.5" rx="189.46" ry="184.5"/></clipPath></defs><title>author_1</title><g id="Layer_2" data-name="Layer 2"><g id="Layer_2-2" data-name="Layer 2"><g class="cls-2"><circle class="cls-3" cx="375.94" cy="375.94" r="370.2"/><path class="cls-3" d="M484.68,543.39C479.6,533.08,418.41,408.69,408,383.2c.87-2.57-10.33-36.92-25.32-61.59-5-14.6-12.37-30.93-15.7-45s3.57-56.57-25.9-93.33S253.65,140.19,218.35,164,190,182.3,187.14,185.14a29.74,29.74,0,0,1-8.61,5.66c-2.86,1.41,4.69,26.89-23.2,54.13-17.53,16.46-27,23.26-29.88,26.09s-10.56-1.21-13.4-4.08-17.88-19-23.82-28.15S67,207.22,65,203.21s2.34-8.27,5.78-10,38.42-20.32,45.87-24,18.61-7,35.74-4.06c11.47-7.06,17.14-10.7,41.23-24s65.65-35.86,121.24-16.93S396.42,196,411.48,252.63c23.6,62.43,35.92,90.54,48.61,116.33s35.79,75.66,83.33,147.67c45.21,77.43,170.37,295.65,180.24,315.71s72,130.46,72,130.46l-3.2,9.4-9.79,10.51L777.55,981l-22.36,12.43-23.42-1.29S611.94,789.05,596.15,757,499.91,574.35,484.68,543.39Z" transform="translate(152.01 154.72)"/><path class="cls-4" d="M65.54,197.9c5.95,1.78,30.07,26.22,38,36.56s20.82,37.25,20.82,37.25" transform="translate(152.01 154.72)"/><path class="cls-4" d="M366.55,276.51c8.49,12.91,12.4,26.65,15.82,27.81s9.78-10.5,6.68-16.81-3.81-29.45-.95-30.86,2.25,6,7.68,5.48,8.07-20,8.07-20" transform="translate(152.01 154.72)"/><path class="cls-4" d="M152.27,165.63c6,2,21.89,14.21,25.53,27.34" transform="translate(152.01 154.72)"/></g></g></g></svg>