<?xml version="1.0" encoding="utf-8"?>
<!-- Generator: Adobe Illustrator 24.0.0, SVG Export Plug-In . SVG Version: 6.00 Build 0)  -->
<svg version="1.1" id="Layer_1" xmlns="http://www.w3.org/2000/svg" xmlns:xlink="http://www.w3.org/1999/xlink" x="0px" y="0px"
	 viewBox="0 0 298 297" style="enable-background:new 0 0 298 297;" xml:space="preserve">
<style type="text/css">
	.st0{clip-path:url(#SVGID_2_);}
	.st1{fill:#FFFAF0;}
	.st2{enable-background:new    ;}
</style>
<title>Favicon</title>
<g>
	<g id="Layer_2_1_">
		<g id="Layer_2-2">
			<g>
				<g>
					<defs>
						<circle id="SVGID_1_" cx="149.5" cy="148.5" r="148.5"/>
					</defs>
					<clipPath id="SVGID_2_">
						<use xlink:href="#SVGID_1_"  style="overflow:visible;"/>
					</clipPath>
					<g class="st0">
						
							<image style="overflow:visible;opacity:0.25;enable-background:new    ;" width="298" height="297" xlink:href="A713B3AB.png"  transform="matrix(1.1124 0 0 1.1124 -16.7978 -16.6854)">
						</image>
						<rect x="0.7" y="0.2" class="st1" width="296.4" height="296.4"/>
						<g class="st2">
							<path d="M215.4,217c-8.8,5.3-18,9.1-27.9,11.6c-9.8,2.4-20.6,3.7-32.3,3.7c-11.8,0-22.7-2.1-32.7-6.3
								c-10-4.2-18.6-10-25.8-17.4s-12.9-15.9-17-25.8c-4.1-9.9-6.1-20.6-6.1-32c0-10.9,1.8-21,5.3-30.4c3.6-9.3,8.6-17.6,15.2-24.5
								c6.6-7,14.5-12.3,23.6-16.4c9.1-3.9,19.4-5.9,30.7-5.9c14.2,0,25.8,1.9,34.9,5.6c9.1,3.7,15.7,8,19.9,12.8
								c1.6,2,2.7,4.2,3.4,6.8c0.8,2.6,1.3,5.2,1.7,8s0.6,5.7,0.7,8.5c0.1,2.9,0.1,5.6,0.1,8.1h-6.8c-2.9-13.9-8.1-24-15.9-30.3
								c-7.7-6.2-18.1-9.5-31.3-9.5c-9.1,0-16.8,1.9-23,5.6c-6.2,3.7-11.5,8.7-15.5,14.9c-4,6.2-6.9,13.3-8.7,21.5
								c-1.8,8.1-2.7,16.5-2.7,25c0,13.8,1.3,25.3,3.9,34.6c2.6,9.3,6.1,16.8,10.7,22.4c4.6,5.6,9.8,9.6,15.9,12
								c6,2.4,12.6,3.7,19.5,3.7c6.8,0,12.6-0.6,17.5-1.6c4.8-1,9.2-2.4,13.1-4.3v-40.5c0-3.2,0.4-6.3,1.4-9.7c1-3.2,3-6.2,6.1-8.9
								c3.1-2.7,7.6-4.8,13.2-6.6c5.8-1.8,13.5-2.6,23.1-2.6v5.7c-5.1,0-8.9,1.9-11.1,5.7c-2.2,3.8-3.4,9.1-3.4,15.9V217H215.4z"/>
						</g>
					</g>
				</g>
			</g>
		</g>
	</g>
</g>
</svg>
