<?xml version="1.0" encoding="utf-8"?>
<!-- Generator: Adobe Illustrator 24.0.0, SVG Export Plug-In . SVG Version: 6.00 Build 0)  -->
<svg version="1.1" id="Layer_1" xmlns="http://www.w3.org/2000/svg" xmlns:xlink="http://www.w3.org/1999/xlink" x="0px" y="0px"
	 viewBox="0 0 298 297" style="enable-background:new 0 0 298 297;" xml:space="preserve">
<style type="text/css">
	.st0{clip-path:url(#SVGID_2_);}
	.st1{fill:#FFFAF0;}
	.st2{enable-background:new    ;}
</style>
<title>Favicon</title>
<g>
	<g id="Layer_2_1_">
		<g id="Layer_2-2">
			<g>
				<defs>
					<circle id="SVGID_1_" cx="149.5" cy="148.5" r="133.5"/>
				</defs>
				<clipPath id="SVGID_2_">
					<use xlink:href="#SVGID_1_"  style="overflow:visible;"/>
				</clipPath>
				<g class="st0">
					
						<image style="overflow:visible;opacity:0.25;enable-background:new    ;" width="298" height="297" xlink:href="A713B3AB.png" >
					</image>
					<rect x="15.7" y="15.2" class="st1" width="266.5" height="266.5"/>
					<g class="st2">
						<path d="M208.7,210.1c-7.9,4.8-16.2,8.2-25.1,10.4c-8.8,2.2-18.5,3.3-29,3.3c-10.6,0-20.4-1.9-29.4-5.7s-16.7-9-23.2-15.6
							c-6.5-6.6-11.6-14.3-15.3-23.2c-3.7-8.9-5.5-18.5-5.5-28.8c0-9.8,1.6-18.9,4.8-27.3c3.2-8.4,7.7-15.8,13.7-22
							c5.9-6.3,13-11.1,21.2-14.7c8.2-3.5,17.4-5.3,27.6-5.3c12.8,0,23.2,1.7,31.4,5c8.2,3.3,14.1,7.2,17.9,11.5
							c1.4,1.8,2.4,3.8,3.1,6.1c0.7,2.3,1.2,4.7,1.5,7.2c0.3,2.5,0.5,5.1,0.6,7.6c0.1,2.6,0.1,5,0.1,7.3h-6.1
							c-2.6-12.5-7.3-21.6-14.3-27.2c-6.9-5.6-16.3-8.5-28.1-8.5c-8.2,0-15.1,1.7-20.7,5c-5.6,3.3-10.3,7.8-13.9,13.4
							c-3.6,5.6-6.2,12-7.8,19.3c-1.6,7.3-2.4,14.8-2.4,22.5c0,12.4,1.2,22.7,3.5,31.1c2.3,8.4,5.5,15.1,9.6,20.1
							c4.1,5,8.8,8.6,14.3,10.8c5.4,2.2,11.3,3.3,17.5,3.3c6.1,0,11.3-0.5,15.7-1.4c4.3-0.9,8.3-2.2,11.8-3.9V174
							c0-2.9,0.4-5.7,1.3-8.7c0.9-2.9,2.7-5.6,5.5-8c2.8-2.4,6.8-4.3,11.9-5.9c5.2-1.6,12.1-2.3,20.8-2.3v5.1c-4.6,0-8,1.7-10,5.1
							c-2,3.4-3.1,8.2-3.1,14.3V210.1z"/>
					</g>
				</g>
			</g>
		</g>
	</g>
</g>
</svg>
